# xmcd CD database file
#
# Track frame offsets:
#	150
#	14425
#	31737
#	50982
#	76810
#	97432
#	114907
#	135390
#	147617
#	165772
#	183120
#	204282
#	226062
#	243282
#	261482
#
# Disc length: 3730 seconds
#
# Revision: 0
# Processed by: cddbd v1.5.1PL0 Copyright (c) Steve Scherf et al.
# Submitted via: CDex 1.50beta8
#
DISCID=c10e900f
DTITLE=Various Artist - Jポップ&ロック・ヒストリー Vol.1
DYEAR=1999
DGENRE=JPop
TTITLE0=坂本九／上を向いて歩こう (1961)
TTITLE1=坂本九／見上げてごらん夜の星を (1963)
TTITLE2=サディスティック・ミカ・バンド／タイムマシンにお願い (1974)
TTITLE3=ダウン・タウン・ブギウギ・バンド／身も心も (1977)
TTITLE4=ダウン・タウン・ブギウギ・バンド／港のヨーコ・ヨコハマ・ヨコスカ (1977)
TTITLE5=甲斐バンド／HERO (ヒーロになる時、それは今) (1978)
TTITLE6=甲斐バンド／安奈 (1979)
TTITLE7=ヒカシュー／白いハイウェイ (1980)
TTITLE8=SKY／君に、クラクラ。 (1981)
TTITLE9=クリエーション／ロンリー・ハート (Japanese Version) (1981)
TTITLE10=高中正義／渚・モデラート (1985)
TTITLE11=VOW WOW／Beat of Metal Motion (1986)
TTITLE12=A・JARI／SHADOW OF LOVE (1986)
TTITLE13=SHOW-YA／限界LOVERS (1989)
TTITLE14=SHOW-YA／私は嵐 (1989)
EXTD=YEAR: 1999
EXTT0=
EXTT1=
EXTT2=
EXTT3=
EXTT4=
EXTT5=
EXTT6=
EXTT7=
EXTT8=
EXTT9=
EXTT10=
EXTT11=
EXTT12=
EXTT13=
EXTT14=
PLAYORDER=
